#!OML:ASF H:\LiuWeirdWalks\Patient Classification 1\Patient 1\Session 1\male.ASF
:FULLY-SPECIFIED
:DEGREES
190
root 0.906269 17.3625 -13.3181 11.2789 4.02947 12.1796
lowerback 8.00092 -1.86302 -13.5178
upperback -0.945025 -3.83035 -0.435697
thorax -4.68205 -1.53575 7.56073
lowerneck -19.477 -0.732392 3.93748
upperneck 17.8608 -1.22866 -4.27381
head 8.73599 -0.776762 -2.26502
rclavicle -4.28381e-014 2.46493e-014
rhumerus -43.2139 -13.3468 -67.5283
rradius 22.1868
rwrist -2.16425
rhand -16.3351 -4.31099
rfingers 7.12502
rthumb 9.87683 -34.0593
lclavicle -4.28381e-014 2.46493e-014
lhumerus -36.538 5.2298 80.4698
lradius 26.8482
lwrist 7.90912
lhand -10.7793 0.719381
lfingers 7.12502
lthumb 15.2331 30.1385
rfemur -51.5666 -11.0834 12.6588
rtibia 37.5859
rfoot -8.60991 -19.6046
rtoes -10.3516
lfemur 14.726 -1.12744 -33.7644
ltibia -1.90833e-014
lfoot -6.05741 11.4462
ltoes -20.2566
191
root 0.903594 17.3533 -13.0479 11.3758 4.70003 11.9146
lowerback 7.87508 -2.15928 -13.2917
upperback -0.987147 -4.17689 -0.258586
thorax -4.57722 -1.71684 7.64826
lowerneck -19.591 -0.753812 3.95918
upperneck 17.9431 -1.26361 -4.29013
head 8.78238 -0.79395 -2.28169
rclavicle 2.20651e-014 3.18055e-015
rhumerus -43.7933 -14.0008 -66.6183
rradius 21.8744
rwrist -1.6074
rhand -16.2687 -4.11593
rfingers 7.12502
rthumb 9.94091 -33.8612
lclavicle 2.20651e-014 3.18055e-015
lhumerus -36.26 4.87897 80.5045
lradius 27.4006
lwrist 8.46987
lhand -11.2438 0.51624
lfingers 7.12502
lthumb 14.7856 29.9688
rfemur -51.4354 -10.6174 12.5294
rtibia 35.1748
rfoot -8.73162 -19.5421
rtoes -11.167
lfemur 15.5599 -1.77573 -33.2087
ltibia 6.36111e-015
lfoot -5.61775 11.0317
ltoes -21.5954
192
root 0.90034 17.3432 -12.7722 11.3861 5.40907 11.5666
lowerback 7.79968 -2.4446 -12.9652
upperback -1.01163 -4.50533 -0.0557972
thorax -4.49114 -1.89106 7.70634
lowerneck -19.6809 -0.773599 3.97607
upperneck 18.0155 -1.2912 -4.32045
head 8.82141 -0.809427 -2.30099
rclavicle -4.40308e-014 -1.03368e-014
rhumerus -44.4001 -14.6269 -65.7005
rradius 21.5916
rwrist -1.13448
rhand -16.2436 -3.95025
rfingers 7.12502
rthumb 9.96512 -33.6944
lclavicle -4.40308e-014 -1.03368e-014
lhumerus -36.0013 4.57454 80.5382
lradius 27.9444
lwrist 8.95584
lhand -11.7173 0.288443
lfingers 7.12502
lthumb 14.3294 29.7739
rfemur -51.1031 -9.99668 12.3124
rtibia 33.209
rfoot -9.26466 -19.7217
rtoes -11.7251
lfemur 16.4824 -2.43361 -32.5514
ltibia 3.18055e-015
lfoot -5.05826 10.5489
ltoes -22.9658
193
root 0.897766 17.3324 -12.4907 11.2895 6.12464 11.1554
lowerback 7.7773 -2.70765 -12.5472
upperback -1.01423 -4.80192 0.156076
thorax -4.42584 -2.05145 7.72176
lowerneck -19.7319 -0.801171 3.96755
upperneck 18.1183 -1.32173 -4.34301
head 8.8641 -0.826759 -2.31395
rclavicle 2.44505e-014 1.43125e-014
rhumerus -45.0306 -15.2687 -64.757
rradius 21.3116
rwrist -0.705315
rhand -16.2542 -3.80563
rfingers 7.12502
rthumb 9.95496 -33.5502
lclavicle 2.44505e-014 1.43125e-014
lhumerus -35.7641 4.29297 80.5715
lradius 28.4578
lwrist 9.39812
lhand -12.2224 -0.0528403
lfingers 7.12502
lthumb 13.8427 29.4665
rfemur -50.59 -9.307 12.0756
rtibia 31.7476
rfoot -10.0186 -19.9449
rtoes -12.0566
lfemur 17.5078 -3.07196 -31.8293
ltibia -2.22639e-014
lfoot -4.35649 10.0012
ltoes -24.351
194
root 0.895799 17.3212 -12.2025 11.0814 6.79503 10.6782
lowerback 7.80844 -2.93379 -12.0519
upperback -1.00169 -5.04849 0.376584
thorax -4.39285 -2.18741 7.70193
lowerneck -19.763 -0.837253 3.92573
upperneck 18.2595 -1.3523 -4.36703
head 8.91677 -0.8463 -2.32246
rclavicle 7.38485e-014 -1.66979e-014
rhumerus -45.7047 -15.8669 -63.8122
rradius 21.0639
rwrist -0.356784
rhand -16.2783 -3.69851
rfingers 7.12502
rthumb 9.93164 -33.4442
lclavicle 7.38485e-014 -1.66979e-014
lhumerus -35.5482 4.05883 80.5998
lradius 28.9166
lwrist 9.81068
lhand -12.7225 -0.516142
lfingers 7.12502
lthumb 13.3606 29.0355
rfemur -49.9327 -8.62328 11.9374
rtibia 30.8206
rfoot -10.8214 -19.9549
rtoes -12.3543
lfemur 18.6332 -3.64432 -31.052
ltibia 4.45278e-014
lfoot -3.48935 9.39574
ltoes -25.7338
195
root 0.895029 17.3097 -11.9075 10.7778 7.38626 10.1724
lowerback 7.86389 -3.11503 -11.521
upperback -0.960536 -5.23313 0.592899
thorax -4.36191 -2.29464 7.65312
lowerneck -19.7918 -0.871145 3.88077
upperneck 18.4134 -1.37296 -4.41576
head 8.97378 -0.864175 -2.33799
rclavicle 5.40694e-014 -1.19271e-014
rhumerus -46.3805 -16.4568 -62.8651
rradius 20.8313
rwrist -0.0486561
rhand -16.2917 -3.61214
rfingers 7.12502
rthumb 9.91877 -33.3585
lclavicle 5.40694e-014 -1.19271e-014
lhumerus -35.3361 3.86524 80.6304
lradius 29.3332
lwrist 10.1944
lhand -13.2214 -1.02631
lfingers 7.12502
lthumb 12.8798 28.5563
rfemur -49.1773 -8.07403 11.9826
rtibia 30.4237
rfoot -11.4893 -19.5265
rtoes -12.6866
lfemur 19.8383 -4.13002 -30.27
ltibia 4.13472e-014
lfoot -2.43433 8.73399
ltoes -27.0984
196
root 0.895115 17.298 -11.6047 10.4114 7.85294 9.65352
lowerback 7.90726 -3.24449 -10.9884
upperback -0.912535 -5.34684 0.801517
thorax -4.33478 -2.36669 7.58799
lowerneck -19.834 -0.905255 3.81872
upperneck 18.608 -1.38411 -4.48291
head 9.04777 -0.880923 -2.35693
rclavicle 1.53064e-014 2.94201e-014
rhumerus -47.0785 -16.9668 -61.9557
rradius 20.6384
rwrist 0.179594
rhand -16.285 -3.54921
rfingers 7.12502
rthumb 9.92516 -33.2952
lclavicle 1.53064e-014 2.94201e-014
lhumerus -35.1518 3.72128 80.6586
lradius 29.6919
lwrist 10.5466
lhand -13.732 -1.55414
lfingers 7.12502
lthumb 12.3875 28.0588
rfemur -48.3551 -7.65479 12.2259
rtibia 30.511
rfoot -11.9975 -18.6382
rtoes -13.1202
lfemur 21.0856 -4.49631 -29.5039
ltibia 0
lfoot -1.17556 8.00693
ltoes -28.4383
197
root 0.89555 17.2866 -11.2948 10.0281 8.17519 9.15971
lowerback 7.89839 -3.31953 -10.5033
upperback -0.862364 -5.38703 0.995449
thorax -4.28978 -2.40225 7.52311
lowerneck -19.912 -0.924511 3.76688
upperneck 18.788 -1.36985 -4.58996
head 9.12409 -0.890088 -2.38839
rclavicle 6.26172e-014 -6.36111e-015
rhumerus -47.7765 -17.4343 -61.0634
rradius 20.4536
rwrist 0.378652
rhand -16.2651 -3.5216
rfingers 7.12502
rthumb 9.94441 -33.2667
lclavicle 6.26172e-014 -6.36111e-015
lhumerus -34.9671 3.62986 80.6863
lradius 29.9762
lwrist 10.8537
lhand -14.2179 -2.03609
lfingers 7.12502
lthumb 11.919 27.6046
rfemur -47.5074 -7.35056 12.6237
rtibia 30.9982
rfoot -12.2816 -17.4214
rtoes -13.5266
lfemur 22.3205 -4.73724 -28.7911
ltibia 7.63333e-014
lfoot 0.325176 7.20605
ltoes -29.7719
